<?xml version="1.0" standalone="no"?>
<!DOCTYPE svg PUBLIC "-//W3C//DTD SVG 20010904//EN"
 "http://www.w3.org/TR/2001/REC-SVG-20010904/DTD/svg10.dtd">
<svg version="1.0" xmlns="http://www.w3.org/2000/svg"
 width="200.000000pt" height="200.000000pt" viewBox="0 0 200.000000 200.000000"
 preserveAspectRatio="xMidYMid meet">
<metadata>
Created by potrace 1.14, written by Peter Selinger 2001-2017
</metadata>
<g transform="translate(0.000000,200.000000) scale(0.100000,-0.100000)"
fill="#000000" stroke="none">
<path d="M0 1000 l0 -1000 1000 0 1000 0 0 1000 0 1000 -1000 0 -1000 0 0
-1000z m891 -15 c43 -121 79 -221 79 -222 0 -2 -27 -3 -59 -3 l-59 0 -13 50
-13 51 -80 -3 -80 -3 -14 -47 -13 -48 -55 0 c-30 0 -54 3 -54 8 0 4 34 105 77
225 l78 218 64 -3 64 -3 78 -220z m386 210 c48 -20 62 -41 63 -91 0 -36 -5
-47 -35 -73 -20 -18 -29 -31 -21 -31 8 0 28 -14 45 -31 25 -24 31 -39 31 -72
0 -23 -8 -56 -19 -73 -31 -51 -73 -64 -205 -64 l-116 0 0 225 0 225 110 0 c76
0 122 -5 147 -15z"/>
<path d="M718 1026 l-25 -86 53 0 53 0 -14 48 c-8 26 -20 64 -28 85 l-13 39
-26 -86z"/>
<path d="M1130 1079 l0 -52 41 6 c50 7 62 17 62 52 0 33 -17 45 -65 45 l-38 0
0 -51z"/>
<path d="M1130 895 l0 -55 44 0 c52 0 76 19 76 60 0 36 -23 50 -79 50 l-41 0
0 -55z"/>
</g>
</svg>
